<?xml version="1.0" standalone="no"?>
<!DOCTYPE svg PUBLIC "-//W3C//DTD SVG 20010904//EN"
 "http://www.w3.org/TR/2001/REC-SVG-20010904/DTD/svg10.dtd">
<svg version="1.0" xmlns="http://www.w3.org/2000/svg"
 width="400.000000pt" height="400.000000pt" viewBox="0 0 400.000000 400.000000"
 preserveAspectRatio="xMidYMid meet">
<metadata>
Created by potrace 1.11, written by Peter Selinger 2001-2013
</metadata>
<g transform="translate(0.000000,400.000000) scale(0.100000,-0.100000)"
fill="#000000" stroke="none">
<path d="M3765 3898 c-22 -4 -69 -10 -104 -13 -35 -3 -69 -9 -75 -13 -13 -8
-110 -20 -209 -27 -38 -2 -74 -8 -80 -13 -14 -11 -119 -25 -199 -26 -31 -1
-51 -4 -45 -8 7 -4 8 -8 2 -8 -5 -1 -44 -5 -85 -11 -41 -5 -109 -14 -150 -20
-41 -5 -102 -12 -135 -15 -33 -3 -69 -9 -80 -14 -20 -9 -69 -16 -195 -26 -36
-3 -69 -10 -75 -15 -5 -5 -39 -9 -76 -9 -37 0 -71 -4 -74 -10 -3 -5 -30 -10
-60 -10 -30 0 -57 -4 -60 -10 -3 -5 -26 -10 -50 -10 -24 0 -67 -5 -97 -11 -29
-6 -63 -13 -75 -15 -19 -4 -23 -11 -23 -38 0 -19 -5 -36 -12 -38 -7 -3 -9 -12
-5 -22 9 -23 10 -1320 1 -1363 -5 -23 -3 -33 6 -33 8 0 10 -8 6 -24 -5 -20 -1
-27 24 -38 17 -7 30 -15 30 -18 0 -3 448 -4 997 -3 l996 3 21 22 c12 12 20 26
18 30 -1 5 3 8 9 8 6 0 9 6 6 14 -3 8 -1 17 6 19 9 3 9 9 0 25 -9 16 -12 220
-13 864 0 704 -3 845 -14 856 -20 20 -83 29 -131 20z"/>
<path d="M3490 3880 c-12 -8 -9 -10 13 -10 15 0 27 5 27 10 0 13 -20 13 -40 0z"/>
<path d="M1750 3600 c0 -5 5 -10 10 -10 6 0 10 5 10 10 0 6 -4 10 -10 10 -5 0
-10 -4 -10 -10z"/>
<path d="M1527 3573 c-4 -3 -40 -10 -79 -14 -40 -5 -107 -13 -148 -19 -41 -6
-100 -11 -130 -13 -30 -1 -58 -6 -62 -12 -4 -5 -35 -13 -70 -16 -35 -4 -101
-13 -148 -19 -47 -6 -106 -12 -132 -14 -25 -2 -51 -7 -58 -11 -6 -4 -39 -9
-73 -11 -34 -3 -69 -8 -77 -11 -18 -7 -121 -22 -205 -29 -33 -3 -67 -8 -75
-11 -8 -3 -37 -7 -65 -9 -27 -2 -67 -10 -87 -19 l-38 -15 -1 -593 c-1 -325 -1
-600 0 -609 1 -10 -2 -18 -7 -18 -6 0 -13 -7 -16 -16 -4 -10 -1 -14 6 -12 13
5 41 -20 51 -45 6 -15 68 -17 759 -19 805 -3 818 -3 818 44 0 13 1 346 0 741
l0 719 -22 18 c-16 14 -39 19 -79 20 -31 0 -59 -3 -62 -7z"/>
<path d="M1248 3553 c7 -3 16 -2 19 1 4 3 -2 6 -13 5 -11 0 -14 -3 -6 -6z"/>
<path d="M1735 2140 c3 -5 8 -10 11 -10 2 0 4 5 4 10 0 6 -5 10 -11 10 -5 0
-7 -4 -4 -10z"/>
<path d="M100 2000 c0 -5 7 -10 15 -10 8 0 15 5 15 10 0 6 -7 10 -15 10 -8 0
-15 -4 -15 -10z"/>
<path d="M1610 2000 c0 -5 7 -10 15 -10 8 0 15 5 15 10 0 6 -7 10 -15 10 -8 0
-15 -4 -15 -10z"/>
<path d="M70 1940 c-13 -9 -13 -10 0 -10 13 0 15 -74 12 -617 -2 -571 -4 -617
-20 -630 -16 -14 -16 -14 1 -9 14 4 17 1 15 -13 -2 -10 1 -18 6 -19 5 0 12 -4
15 -9 17 -23 44 -33 112 -43 40 -6 91 -18 113 -26 21 -8 57 -14 80 -14 57 2
146 -11 141 -20 -3 -4 28 -8 68 -8 39 0 92 -5 117 -12 25 -7 63 -14 85 -15 85
-5 236 -25 253 -33 9 -5 42 -10 72 -11 46 -2 216 -26 325 -47 17 -3 42 -7 58
-8 15 -2 30 -6 34 -10 21 -21 136 6 126 30 -3 8 0 14 7 14 7 0 10 7 6 16 -3 8
-6 341 -6 739 0 436 -4 726 -10 730 -5 3 -7 12 -3 20 3 9 -1 15 -11 15 -9 0
-16 -4 -16 -10 0 -6 -9 -6 -26 0 -36 14 -1464 13 -1500 0 -18 -7 -29 -7 -33
-1 -4 6 -12 6 -21 1z"/>
<path d="M1845 1940 c-11 -4 -23 -6 -27 -4 -3 2 -7 -329 -7 -736 -1 -408 -4
-747 -8 -755 -3 -8 0 -15 7 -15 7 0 9 -8 5 -20 -4 -12 -2 -20 5 -20 6 0 8 -5
4 -12 -4 -6 -3 -8 4 -4 6 3 15 0 19 -8 8 -14 20 -18 118 -31 22 -3 62 -10 88
-15 26 -6 68 -10 92 -10 24 0 46 -4 49 -8 3 -5 29 -9 58 -10 81 -4 282 -33
294 -43 6 -5 55 -13 110 -19 54 -5 124 -14 154 -20 30 -6 82 -13 115 -16 92
-7 122 -11 230 -28 55 -8 190 -27 299 -41 110 -14 206 -31 213 -37 7 -6 22 -8
33 -5 11 3 39 -1 62 -8 24 -6 49 -10 57 -7 7 2 17 -2 22 -9 7 -11 9 -11 9 -1
0 10 5 10 20 2 11 -6 19 -7 18 -3 -5 19 14 51 35 58 19 6 19 8 5 12 -17 4 -18
54 -18 861 0 471 -3 874 -6 895 -4 20 -12 37 -19 37 -7 0 -18 7 -25 15 -11 13
-139 15 -1004 14 -545 0 -1000 -4 -1011 -9z"/>
<path d="M1801 1904 c0 -11 3 -14 6 -6 3 7 2 16 -1 19 -3 4 -6 -2 -5 -13z"/>
<path d="M3910 1900 c0 -5 5 -10 11 -10 5 0 7 5 4 10 -3 6 -8 10 -11 10 -2 0
-4 -4 -4 -10z"/>
<path d="M3975 70 c-3 -5 -1 -10 4 -10 6 0 11 5 11 10 0 6 -2 10 -4 10 -3 0
-8 -4 -11 -10z"/>
</g>
</svg>
